<svg xmlns="http://www.w3.org/2000/svg" xmlns:xlink="http://www.w3.org/1999/xlink" xml:space="preserve" version="1.1" style="shape-rendering:geometricPrecision;text-rendering:geometricPrecision;image-rendering:optimizeQuality;" viewBox="0 0 220.42 418.9375" x="0px" y="0px" fill-rule="evenodd" clip-rule="evenodd"><defs><style type="text/css">
   
    .fil0 {fill:black}
   
  </style></defs><g><path class="fil0" d="M110.21 0c60.86,0 110.21,49.35 110.21,110.21 0,23.73 -7.51,45.72 -20.27,63.7 -36.6,51.58 -64.85,103.46 -89.94,161.24 -25.09,-57.78 -53.34,-109.66 -89.94,-161.24 -12.76,-17.98 -20.27,-39.97 -20.27,-63.7 0,-60.86 49.35,-110.21 110.21,-110.21zm0 61.33c26.99,0 48.88,21.89 48.88,48.88 0,26.99 -21.89,48.88 -48.88,48.88 -26.99,0 -48.88,-21.89 -48.88,-48.88 0,-26.99 21.89,-48.88 48.88,-48.88z"/></g></svg>